# File created by Blade
# Date/Time:  Mon Nov 15 14:44:42 2010
#---------------------------------------------------------
:version 1.10
:name HOM
:units
  mass 1.0
  length 1.000000
  angle deg
:documentation
     Acclaim Skeleton File
:root
   axis xyz
   order TX TY TZ RX RY RZ
   position 0.000000 0.000000 0.000000
   orientation 0 0 0
:bonedata
   begin
      id 1
      name LeftUpLeg_dum
      direction 1.000000 0.000000 0.000000
      length 4.719518
      axis 0.0 0.0 0.0 xyz
   end
   begin
      id 2
      name RightUpLeg_dum
      direction -1.000000 0.000000 0.000000
      length 4.719518
      axis 0.0 0.0 0.0 xyz
   end
   begin
      id 3
      name Spine_dum
      direction 0.000000 1.000000 0.000000
      length 0.039370
      axis 0.0 0.0 0.0 xyz
   end
   begin
      id 4
      name LeftUpLeg
      direction 0.000000 -1.000000 0.000000
      length 19.141694
      axis 0.0 0.0 0.0 xyz
      dof rx ry rz
   end
   begin
      id 5
      name LeftLeg
      direction 0.000000 -1.000000 0.000000
      length 19.555040
      axis 0.0 0.0 0.0 xyz
      dof rx ry rz
   end
   begin
      id 6
      name LeftFoot
      direction 0.000000 -0.258819 0.965926
      length 6.929396
      axis 15.0 0.0 0.0 xyz
      dof rx ry rz
   end
   begin
      id 7
      name LeftToeBase
      direction 0.000000 0.000000 1.000000
      length 2.952750
      axis 0.0 0.0 0.0 xyz
      dof rx ry rz
   end
   begin
      id 8
      name RightUpLeg
      direction 0.000000 -1.000000 0.000000
      length 19.141694
      axis 0.0 0.0 0.0 xyz
      dof rx ry rz
   end
   begin
      id 9
      name RightLeg
      direction 0.000000 -1.000000 0.000000
      length 19.555040
      axis 0.0 0.0 0.0 xyz
      dof rx ry rz
   end
   begin
      id 10
      name RightFoot
      direction 0.000000 -0.258819 0.965926
      length 6.929396
      axis 15.0 0.0 0.0 xyz
      dof rx ry rz
   end
   begin
      id 11
      name RightToeBase
      direction 0.000000 0.000000 1.000000
      length 2.952750
      axis 0.0 0.0 0.0 xyz
      dof rx ry rz
   end
   begin
      id 12
      name Spine
      direction 0.000000 1.000000 0.000000
      length 11.965764
      axis 0.0 0.0 0.0 xyz
      dof rx ry rz
   end
   begin
      id 13
      name Spine1
      direction 0.000000 1.000000 0.000000
      length 0.000000
      axis 0.0 0.0 0.0 xyz
      dof rx ry rz
   end
   begin
      id 14
      name Spine1_dum1
      direction 0.000000 1.000000 0.000000
      length 9.788721
      axis 0.0 0.0 0.0 xyz
   end
   begin
      id 15
      name Spine1_dum2
      direction 0.000000 1.000000 0.000000
      length 9.788721
      axis 0.0 0.0 0.0 xyz
   end
   begin
      id 16
      name Spine1_dum3
      direction 0.000000 1.000000 0.000000
      length 9.788721
      axis 0.0 0.0 0.0 xyz
   end
   begin
      id 17
      name Neck
      direction 0.000000 1.000000 0.000000
      length 7.029632
      axis 0.0 0.0 0.0 xyz
      dof rx ry rz
   end
   begin
      id 18
      name Head
      direction 0.000000 1.000000 0.000000
      length 4.527550
      axis 0.0 0.0 0.0 xyz
      dof rx ry rz
   end
   begin
      id 19
      name LeftShoulder
      direction 1.000000 -0.000004 0.000000
      length 9.320257
      axis 0.0 0.0 -90.0 xyz
      dof rx ry rz
   end
   begin
      id 20
      name LeftArm
      direction 1.000000 -0.000004 0.000000
      length 12.801352
      axis 0.0 0.0 -90.0 xyz
      dof rx ry rz
   end
   begin
      id 21
      name LeftForeArm
      direction 1.000000 -0.000004 0.000000
      length 11.278127
      axis 0.0 0.0 -90.0 xyz
      dof rx ry rz
   end
   begin
      id 22
      name LeftHand
      direction 0.000000 0.000000 0.000000
      length 0.000000
      axis 0.0 0.0 -90.0 xyz
      dof rx ry rz
   end
   begin
      id 23
      name LeftHand_dum1
      direction 0.000000 0.000000 0.000000
      length 0.000000
      axis 0.0 0.0 -90.0 xyz
   end
   begin
      id 24
      name LeftHand_dum2
      direction 1.000000 -0.000004 0.000000
      length 3.937000
      axis 0.0 0.0 -90.0 xyz
   end
   begin
      id 25
      name LeftHandThumb
      direction 0.000000 0.000000 1.000000
      length 3.937000
      axis 0.0 0.0 -90.0 xyz
      dof rx ry rz
   end
   begin
      id 26
      name RightShoulder
      direction -1.000000 -0.000004 0.000000
      length 9.320257
      axis 0.0 0.0 90.0 xyz
      dof rx ry rz
   end
   begin
      id 27
      name RightArm
      direction -1.000000 -0.000004 0.000000
      length 12.801352
      axis 0.0 0.0 90.0 xyz
      dof rx ry rz
   end
   begin
      id 28
      name RightForeArm
      direction -1.000000 -0.000004 0.000000
      length 11.278127
      axis 0.0 0.0 90.0 xyz
      dof rx ry rz
   end
   begin
      id 29
      name RightHand
      direction 0.000000 0.000000 0.000000
      length 0.000000
      axis 0.0 0.0 90.0 xyz
      dof rx ry rz
   end
   begin
      id 30
      name RightHand_dum1
      direction 0.000000 0.000000 0.000000
      length 0.000000
      axis 0.0 0.0 90.0 xyz
   end
   begin
      id 31
      name RightHand_dum2
      direction -1.000000 -0.000004 0.000000
      length 5.393690
      axis 0.0 0.0 90.0 xyz
   end
   begin
      id 32
      name RightHandThumb
      direction 0.000000 0.000000 1.000000
      length 3.937000
      axis 0.0 0.0 90.0 xyz
      dof rx ry rz
   end
:hierarchy
   begin
      root LeftUpLeg_dum RightUpLeg_dum Spine_dum
      LeftUpLeg_dum LeftUpLeg
      RightUpLeg_dum RightUpLeg
      Spine_dum Spine
      LeftUpLeg LeftLeg
      LeftLeg LeftFoot
      LeftFoot LeftToeBase
      RightUpLeg RightLeg
      RightLeg RightFoot
      RightFoot RightToeBase
      Spine Spine1
      Spine1 Spine1_dum1 Spine1_dum2 Spine1_dum3
      Spine1_dum1 Neck
      Spine1_dum2 LeftShoulder
      Spine1_dum3 RightShoulder
      Neck Head
      LeftShoulder LeftArm
      LeftArm LeftForeArm
      LeftForeArm LeftHand
      LeftHand LeftHand_dum1 LeftHand_dum2
      LeftHand_dum1 LeftHandThumb
      RightShoulder RightArm
      RightArm RightForeArm
      RightForeArm RightHand
      RightHand RightHand_dum1 RightHand_dum2
      RightHand_dum1 RightHandThumb
   end

# File created by Blade
# Date/Time:  Mon Nov 15 14:56:25 2010
# Frame Rate: 200.000 fps
#------------------------------------------------------
:FULLY-SPECIFIED
:DEGREES
736
root  1.485985 39.746419 94.718537 -23.461262 7.425736 -0.129437
LeftUpLeg  -1.311037 3.452816 -0.314212
LeftLeg  58.066381 -0.000000 -0.000000
LeftFoot  -0.863070 5.796652 -8.147128
LeftToeBase  -31.878160 0.000000 -0.000000
RightUpLeg  -0.875360 -26.139148 -3.651008
RightLeg  25.749924 -0.000000 0.000000
RightFoot  3.027195 -0.092291 -17.353897
RightToeBase  -22.039523 0.000000 -0.000000
Spine  15.140269 -3.656287 0.772464
Spine1  4.223117 -1.062094 -2.066390
Neck  15.201406 -6.309591 -1.053778
Head  -18.896497 -7.478903 5.813235
LeftShoulder  -4.601132 10.294084 2.752040
LeftArm  23.164624 13.850916 -83.095009
LeftForeArm  25.681465 -0.000000 0.000000
LeftHand  -5.746055 10.409475 -7.955032
LeftHandThumb  0.000000 -0.000000 0.000000
RightShoulder  -10.868612 -13.798357 1.042051
RightArm  13.222857 -19.297853 79.564724
RightForeArm  27.930978 -0.000000 0.000000
RightHand  11.952206 19.220629 -4.752969
RightHandThumb  0.000000 -0.000000 0.000000
737
root  1.494395 39.821527 94.850261 -23.425556 7.371099 0.088388
LeftUpLeg  -1.345897 3.688475 -0.694712
LeftLeg  56.410159 -0.000000 -0.000000
LeftFoot  -1.293696 6.093168 -7.338335
LeftToeBase  -31.691576 0.000000 -0.000000
RightUpLeg  -0.422433 -26.170948 -3.940165
RightLeg  25.323774 -0.000000 0.000000
RightFoot  2.977820 0.011006 -17.687390
RightToeBase  -21.915488 0.000000 -0.000000
Spine  15.202686 -3.618582 0.732049
Spine1  4.168596 -1.046582 -2.313042
Neck  15.225902 -6.254515 -1.061526
Head  -18.993506 -7.410394 5.842458
LeftShoulder  -4.654496 10.409567 2.627914
LeftArm  22.896058 14.204452 -83.067681
LeftForeArm  25.221282 -0.000000 0.000000
LeftHand  -5.812840 10.774828 -8.034419
LeftHandThumb  0.000000 -0.000000 0.000000
RightShoulder  -10.675655 -13.570129 0.936739
RightArm  13.389174 -19.326127 79.711501
RightForeArm  28.005250 -0.000000 0.000000
RightHand  11.941175 18.966046 -4.573054
RightHandThumb  0.000000 -0.000000 0.000000
738
root  1.493185 39.889910 94.973880 -23.314114 7.251589 0.171444
LeftUpLeg  -1.452851 3.930074 -0.867085
LeftLeg  54.765688 -0.000000 -0.000000
LeftFoot  -1.659159 6.359712 -7.190174
LeftToeBase  -31.641329 0.000000 -0.000000
RightUpLeg  -0.092576 -26.098822 -3.964504
RightLeg  24.812786 -0.000000 0.000000
RightFoot  3.080174 -0.033400 -17.869380
RightToeBase  -21.936488 0.000000 -0.000000
Spine  15.253956 -3.570883 0.742974
Spine1  4.017842 -1.001355 -2.395353
Neck  15.170490 -6.110978 -1.130972
Head  -18.975322 -7.472544 5.873722
LeftShoulder  -4.687333 10.553071 2.477936
LeftArm  22.568734 14.432696 -83.119662
LeftForeArm  24.887019 -0.000000 0.000000
LeftHand  -5.897876 11.388611 -8.284148
LeftHandThumb  0.000000 -0.000000 0.000000
RightShoulder  -10.543497 -13.279124 0.722043
RightArm  13.490470 -19.443313 79.910031
RightForeArm  28.016275 -0.000000 0.000000
RightHand  11.920027 18.695670 -4.340729
RightHandThumb  0.000000 -0.000000 0.000000
739
root  1.491452 39.955021 95.097573 -23.202877 7.131920 0.254243
LeftUpLeg  -1.560565 4.171350 -1.039962
LeftLeg  53.121217 -0.000000 0.000000
LeftFoot  -2.024121 6.627188 -7.043650
LeftToeBase  -31.591081 0.000000 -0.000000
RightUpLeg  0.237044 -26.026572 -3.988366
RightLeg  24.301798 -0.000000 0.000000
RightFoot  3.182668 -0.077482 -18.051450
RightToeBase  -21.957488 0.000000 -0.000000
Spine  15.305232 -3.523194 0.753941
Spine1  3.867025 -0.956345 -2.477782
Neck  15.114918 -5.967508 -1.200539
Head  -18.957170 -7.534705 5.904969
LeftShoulder  -4.720568 10.696490 2.327804
LeftArm  22.240858 14.660648 -83.173043
LeftForeArm  24.552757 -0.000000 0.000000
LeftHand  -5.985834 12.002023 -8.535363
LeftHandThumb  0.000000 -0.000000 0.000000
RightShoulder  -10.412616 -12.987640 0.508291
RightArm  13.591408 -19.560829 80.108486
RightForeArm  28.027300 -0.000000 0.000000
RightHand  11.897756 18.425377 -4.108668
RightHandThumb  0.000000 -0.000000 0.000000
740
root  1.499791 40.019739 95.230628 -23.178443 7.016873 0.427759
LeftUpLeg  -1.420014 4.385494 -1.273251
LeftLeg  51.284008 -0.000000 0.000000
LeftFoot  -2.076731 6.781217 -7.336316
LeftToeBase  -31.504024 0.000000 -0.000000
RightUpLeg  0.567989 -26.534179 -4.330952
RightLeg  24.163167 -0.000000 0.000000
RightFoot  2.953072 0.475826 -18.070934
RightToeBase  -21.743256 0.000000 -0.000000
Spine  15.347590 -3.475380 0.741127
Spine1  3.844965 -0.917719 -2.705927
Neck  15.074937 -5.933059 -1.196254
Head  -18.988060 -7.450374 5.884229
LeftShoulder  -4.777626 10.892192 2.240225
LeftArm  22.008218 14.790408 -83.244007
LeftForeArm  24.212918 -0.000000 0.000000
LeftHand  -6.447020 12.385321 -8.537396
LeftHandThumb  0.000000 -0.000000 0.000000
RightShoulder  -10.256600 -12.774153 0.387691
RightArm  13.793014 -19.686702 80.217953
RightForeArm  28.088191 -0.000000 0.000000
RightHand  11.970711 18.501173 -4.183538
RightHandThumb  0.000000 -0.000000 0.000000
741
root  1.507343 40.082157 95.364733 -23.154366 6.901753 0.601183
LeftUpLeg  -1.280298 4.600206 -1.506081
LeftLeg  49.446798 -0.000000 0.000000
LeftFoot  -2.130149 6.934977 -7.629219
LeftToeBase  -31.416967 0.000000 -0.000000
RightUpLeg  0.903817 -27.039989 -4.678358
RightLeg  24.024537 -0.000000 0.000000
RightFoot  2.723259 1.029050 -18.092637
RightToeBase  -21.529024 0.000000 -0.000000
Spine  15.389935 -3.427557 0.728350
Spine1  3.822752 -0.879180 -2.934084
Neck  15.034960 -5.898607 -1.191994
Head  -19.018974 -7.366055 5.863447
LeftShoulder  -4.835028 11.087809 2.152389
LeftArm  21.775272 14.919887 -83.315558
LeftForeArm  23.873079 -0.000000 0.000000
LeftHand  -6.908908 12.768591 -8.542596
LeftHandThumb  0.000000 -0.000000 0.000000
RightShoulder  -10.101176 -12.560348 0.267787
RightArm  13.994523 -19.812938 80.327036
RightForeArm  28.149081 -0.000000 0.000000
RightHand  12.043594 18.577058 -4.258340
RightHandThumb  0.000000 -0.000000 0.000000
742
root  1.504207 40.141079 95.493160 -23.093664 6.725452 0.739463
LeftUpLeg  -1.102827 4.859394 -1.650268
LeftLeg  47.581216 -0.000000 0.000000
LeftFoot  -2.310634 7.218755 -7.797472
LeftToeBase  -30.775038 0.000000 -0.000000
RightUpLeg  1.233001 -26.871802 -4.793450
RightLeg  23.661214 -0.000000 0.000000
RightFoot  2.677661 1.133224 -17.954657
RightToeBase  -21.586052 0.000000 -0.000000
Spine  15.407009 -3.342446 0.706451
Spine1  3.791442 -0.810135 -3.088976
Neck  14.960270 -5.881926 -1.174742
Head  -19.012511 -7.294905 5.768416
LeftShoulder  -4.873206 11.290038 2.004724
LeftArm  21.528033 14.978858 -83.319093
LeftForeArm  23.611025 -0.000000 0.000000
LeftHand  -6.663066 12.799488 -8.741481
LeftHandThumb  0.000000 -0.000000 0.000000
RightShoulder  -9.960899 -12.362541 0.143666
RightArm  14.216249 -20.001224 80.406899
RightForeArm  28.191757 -0.000000 0.000000
RightHand  12.047084 18.584120 -4.292255
RightHandThumb  0.000000 -0.000000 0.000000
743
root  1.498100 40.197253 95.620436 -23.033412 6.549005 0.877505
LeftUpLeg  -0.925941 5.119025 -1.793706
LeftLeg  45.715635 -0.000000 0.000000
LeftFoot  -2.492074 7.502004 -7.966734
LeftToeBase  -30.133108 0.000000 -0.000000
RightUpLeg  1.561318 -26.703028 -4.907288
RightLeg  23.297892 -0.000000 0.000000
RightFoot  2.632312 1.237506 -17.816754
RightToeBase  -21.643079 0.000000 -0.000000
Spine  15.424049 -3.257328 0.684580
Spine1  3.759945 -0.741175 -3.243904
Neck  14.885586 -5.865222 -1.157513
Head  -19.006167 -7.223746 5.673409
LeftShoulder  -4.911943 11.492169 1.856816
LeftArm  21.280721 15.037813 -83.322893
LeftForeArm  23.348972 -0.000000 0.000000
LeftHand  -6.417305 12.831216 -8.940253
LeftHandThumb  0.000000 -0.000000 0.000000
RightShoulder  -9.821165 -12.164439 0.020133
RightArm  14.437962 -20.189800 80.486081
RightForeArm  28.234432 -0.000000 0.000000
RightHand  12.050569 18.591184 -4.326171
RightHandThumb  0.000000 -0.000000 0.000000
744
root  1.495040 40.250812 95.749400 -22.985262 6.351034 0.975997
LeftUpLeg  -0.657811 5.273854 -1.870921
LeftLeg  43.763936 -0.000000 0.000000
LeftFoot  -2.479467 7.691883 -8.293269
LeftToeBase  -30.153161 0.000000 -0.000000
RightUpLeg  1.877977 -26.516253 -4.966329
RightLeg  22.950891 -0.000000 0.000000
RightFoot  2.605740 1.302272 -17.691548
RightToeBase  -21.634786 0.000000 -0.000000
Spine  15.437786 -3.186208 0.692377
Spine1  3.729616 -0.672180 -3.388901
Neck  14.843480 -5.807633 -1.150518
Head  -19.046646 -7.138283 5.592070
LeftShoulder  -4.958854 11.671743 1.722063
LeftArm  20.950090 14.937205 -83.419498
LeftForeArm  23.168885 -0.000000 0.000000
LeftHand  -6.820989 13.029483 -8.858790
LeftHandThumb  0.000000 -0.000000 0.000000
RightShoulder  -9.675543 -11.998579 -0.094080
RightArm  14.688406 -20.425557 80.517227
RightForeArm  28.265234 -0.000000 0.000000
RightHand  12.000149 18.432342 -4.286335
RightHandThumb  0.000000 -0.000000 0.000000
745
root  1.490226 40.302407 95.878389 -22.937472 6.152981 1.074284
LeftUpLeg  -0.389823 5.429040 -1.947427
LeftLeg  41.812237 -0.000000 0.000000
LeftFoot  -2.467947 7.881830 -8.619910
LeftToeBase  -30.173215 0.000000 -0.000000
RightUpLeg  2.193908 -26.329189 -5.024121
RightLeg  22.603890 -0.000000 0.000000
RightFoot  2.579309 1.367095 -17.566369
RightToeBase  -21.626493 0.000000 -0.000000
Spine  15.451532 -3.115089 0.700190
Spine1  3.699112 -0.603263 -3.533933
Neck  14.801384 -5.750038 -1.143566
Head  -19.087239 -7.052878 5.510685
LeftShoulder  -5.006227 11.851208 1.587071
LeftArm  20.619789 14.836062 -83.515456
LeftForeArm  22.988797 -0.000000 0.000000
LeftHand  -7.224710 13.228305 -8.778699
LeftHandThumb  0.000000 -0.000000 0.000000
RightShoulder  -9.530348 -11.832436 -0.207792
RightArm  14.939099 -20.661438 80.547319
RightForeArm  28.296036 -0.000000 0.000000
RightHand  11.949658 18.273534 -4.246390
RightHandThumb  0.000000 -0.000000 0.000000
746
root  1.480007 40.353276 96.006936 -22.899484 5.931633 1.122420
LeftUpLeg  -0.026839 5.556159 -1.962757
LeftLeg  39.774319 -0.000000 0.000000
LeftFoot  -2.523969 8.313652 -8.236782
LeftToeBase  -29.801432 0.000000 -0.000000
RightUpLeg  2.625828 -25.647653 -4.895685
RightLeg  21.935058 -0.000000 0.000000
RightFoot  2.790337 1.032340 -17.605746
RightToeBase  -22.033573 0.000000 -0.000000
Spine  15.460139 -3.045279 0.731143
Spine1  3.673869 -0.524848 -3.659812
Neck  14.771513 -5.695214 -1.133789
Head  -19.147854 -6.973610 5.432822
LeftShoulder  -5.062590 12.028782 1.404748
LeftArm  20.277025 14.656469 -83.541647
LeftForeArm  22.866490 -0.000000 0.000000
LeftHand  -7.233602 13.278320 -8.797565
LeftHandThumb  0.000000 -0.000000 0.000000
RightShoulder  -9.379586 -11.682117 -0.289334
RightArm  15.211770 -20.989055 80.515818
RightForeArm  28.255480 -0.000000 0.000000
RightHand  11.699880 17.700754 -3.864704
RightHandThumb  0.000000 -0.000000 0.000000
